<?xml version="1.0" encoding="UTF-8" standalone="no"?>
<!-- Created with Inkscape (http://www.inkscape.org/) -->

<svg
   width="210mm"
   height="297mm"
   viewBox="0 0 210 297"
   version="1.1"
   id="svg1"
   xml:space="preserve"
   inkscape:version="1.3 (0e150ed6c4, 2023-07-21)"
   sodipodi:docname="inomeado.svg"
   inkscape:export-filename="inomeado.png"
   inkscape:export-xdpi="96"
   inkscape:export-ydpi="96"
   xmlns:inkscape="http://www.inkscape.org/namespaces/inkscape"
   xmlns:sodipodi="http://sodipodi.sourceforge.net/DTD/sodipodi-0.dtd"
   xmlns:xlink="http://www.w3.org/1999/xlink"
   xmlns="http://www.w3.org/2000/svg"
   xmlns:svg="http://www.w3.org/2000/svg"><sodipodi:namedview
     id="namedview1"
     pagecolor="#ffffff"
     bordercolor="#000000"
     borderopacity="0.25"
     inkscape:showpageshadow="2"
     inkscape:pageopacity="0.0"
     inkscape:pagecheckerboard="0"
     inkscape:deskcolor="#d1d1d1"
     inkscape:document-units="mm"
     inkscape:zoom="1.0786153"
     inkscape:cx="337.00616"
     inkscape:cy="275.81659"
     inkscape:window-width="1920"
     inkscape:window-height="991"
     inkscape:window-x="-9"
     inkscape:window-y="-9"
     inkscape:window-maximized="1"
     inkscape:current-layer="layer1" /><defs
     id="defs1"><inkscape:path-effect
       effect="spiro"
       id="path-effect42"
       is_visible="true"
       lpeversion="1" /><inkscape:path-effect
       effect="spiro"
       id="path-effect40"
       is_visible="true"
       lpeversion="1" /><inkscape:path-effect
       effect="spiro"
       id="path-effect37"
       is_visible="true"
       lpeversion="1" /><inkscape:path-effect
       effect="spiro"
       id="path-effect36"
       is_visible="true"
       lpeversion="1" /><inkscape:path-effect
       effect="spiro"
       id="path-effect26"
       is_visible="true"
       lpeversion="1" /><inkscape:path-effect
       effect="spiro"
       id="path-effect25"
       is_visible="true"
       lpeversion="1" /><inkscape:path-effect
       effect="spiro"
       id="path-effect23"
       is_visible="true"
       lpeversion="1" /><inkscape:path-effect
       effect="spiro"
       id="path-effect22"
       is_visible="true"
       lpeversion="1" /><inkscape:path-effect
       effect="spiro"
       id="path-effect21"
       is_visible="true"
       lpeversion="1" /><inkscape:path-effect
       effect="spiro"
       id="path-effect20"
       is_visible="true"
       lpeversion="1" /><inkscape:path-effect
       effect="spiro"
       id="path-effect17"
       is_visible="true"
       lpeversion="1" /><inkscape:path-effect
       effect="spiro"
       id="path-effect16"
       is_visible="true"
       lpeversion="1" /><inkscape:path-effect
       effect="spiro"
       id="path-effect15"
       is_visible="true"
       lpeversion="1" /><inkscape:path-effect
       effect="spiro"
       id="path-effect14"
       is_visible="true"
       lpeversion="1" /><linearGradient
       id="linearGradient13"
       inkscape:collect="always"><stop
         style="stop-color:#525252;stop-opacity:1;"
         offset="0"
         id="stop13" /><stop
         style="stop-color:#000c42;stop-opacity:1;"
         offset="0.99915797"
         id="stop14" /></linearGradient><inkscape:path-effect
       effect="spiro"
       id="path-effect13"
       is_visible="true"
       lpeversion="1" /><inkscape:path-effect
       effect="spiro"
       id="path-effect12"
       is_visible="true"
       lpeversion="1" /><inkscape:path-effect
       effect="spiro"
       id="path-effect11"
       is_visible="true"
       lpeversion="1" /><inkscape:path-effect
       effect="spiro"
       id="path-effect8"
       is_visible="true"
       lpeversion="1" /><inkscape:path-effect
       effect="spiro"
       id="path-effect1"
       is_visible="true"
       lpeversion="1" /><radialGradient
       inkscape:collect="always"
       xlink:href="#linearGradient13"
       id="radialGradient14"
       cx="29.424213"
       cy="41.091091"
       fx="29.424213"
       fy="41.091091"
       r="11.060856"
       gradientTransform="matrix(1,0,0,0.63626899,0,14.946104)"
       gradientUnits="userSpaceOnUse" /></defs><g
     inkscape:label="Camada 1"
     inkscape:groupmode="layer"
     id="layer1"><path
       style="fill:#ffffff;fill-opacity:1;stroke:#000000;stroke-width:1.05833;stroke-dasharray:none;stroke-opacity:1"
       d="m 129.57363,108.99822 c 1.37391,-0.40347 3.33146,-0.68495 4.30665,-1.92398 1.28077,-1.62726 1.27868,-3.88034 1.54916,-5.82769 0.16146,-1.16251 0.44908,-2.310096 0.49573,-3.48546 0.0781,-1.968219 -0.59101,-5.323535 -1.48719,-7.138228 -0.16854,-0.341272 -1.53821,-2.286463 -1.70407,-2.286463 -0.004,0 1.05529,0.164524 1.79702,0.641327 1.15441,0.74209 2.14394,1.938948 2.94339,3.039321 2.91069,4.006318 3.8873,9.633593 2.50963,14.415873 -1.06968,3.7132 -3.10549,7.28909 -6.97119,8.44876 -1.78256,0.53474 -3.56986,1.00998 -5.36008,1.50572 -0.33824,0.0937 -2.00397,0.4575 -1.36326,0.11153"
       id="path24" /><path
       style="fill:#ffffff;fill-opacity:1;stroke:#000000;stroke-width:1.05833;stroke-dasharray:none;stroke-opacity:1"
       d="m 55.028274,75.73297 c 0.218893,4.271376 0.874034,8.520273 1.951934,12.659198 0.758637,2.913017 1.729782,5.779947 3.067328,8.476644 1.311076,2.643329 2.961968,5.100438 4.554516,7.584368 2.482868,3.87258 4.963782,7.96391 8.830186,10.45638 0.986868,0.63618 2.045764,1.15418 3.036345,1.78456 1.594921,1.01497 2.998675,2.31219 4.616484,3.29027 2.600237,1.57203 5.624937,2.24874 8.489371,3.2624 1.086595,0.38452 2.155416,0.81988 3.253226,1.17111 3.834356,1.22674 7.912136,1.39719 11.928496,1.67302 2.57998,0.17718 5.17603,0.40152 7.74578,0.11154 2.06347,-0.23285 4.11965,-0.81262 5.8558,-1.95186 2.1241,-1.39381 3.63393,-3.51913 5.26713,-5.4652 1.27882,-1.5238 2.66478,-2.96921 3.7507,-4.63598 1.08592,-1.66677 1.86791,-3.61073 1.7643,-5.59734 -0.11396,-2.18517 -1.30306,-4.21537 -2.90431,-5.70666 -1.60124,-1.4913 -3.59049,-2.49997 -5.61605,-3.327658 -4.33365,-1.770816 -8.96699,-2.807343 -13.13684,-4.935413 -3.47776,-1.774867 -6.53427,-4.25897 -9.790657,-6.413251 -1.749396,-1.157323 -3.558886,-2.220812 -5.329095,-3.346042 -3.797402,-2.413811 -7.44576,-5.129088 -11.587683,-6.887274 -2.793209,-1.185677 -5.779368,-1.921018 -8.458388,-3.346045 -1.236615,-0.657781 -2.394231,-1.456001 -3.501091,-2.314345 -0.420134,-0.325804 -0.833365,-0.660508 -1.239324,-1.003813"
       id="path23"
       inkscape:path-effect="#path-effect23"
       inkscape:original-d="m 55.028274,75.73297 c -0.623163,4.308633 0.619305,8.611489 1.951934,12.659198 0.935554,2.84163 1.600756,5.836915 3.067328,8.476644 1.445244,2.601333 3.327765,4.863718 4.554516,7.584368 1.912816,4.24218 4.913236,7.884 8.830186,10.45638 0.975672,0.64075 2.085845,1.11923 3.036345,1.78456 1.532612,1.07279 2.998891,2.33842 4.616484,3.29027 2.683873,1.5793 5.541865,2.39874 8.489371,3.2624 1.103294,0.32327 2.149792,0.86888 3.253226,1.17111 3.925083,1.07509 7.869746,1.53253 11.928496,1.67302 2.43674,0.0844 5.38382,0.44717 7.74578,0.11154 1.95586,-0.27793 4.08589,-1.09417 5.8558,-1.95186 2.48548,-1.20445 3.41984,-3.60712 5.26713,-5.4652 1.65342,-1.66309 5.21261,-7.78414 5.515,-10.23332 0.81156,-6.57339 -2.24403,-6.88252 -8.52036,-9.034318 -4.385,-1.50337 -9.08369,-2.625211 -13.13684,-4.935413 -3.34748,-1.907995 -6.70505,-4.126362 -9.790657,-6.413251 C 96.008348,86.921254 94.070539,86.033866 92.362918,84.823056 88.443474,82.043922 85.278837,79.759669 80.775235,77.935782 77.963238,76.796968 74.964347,76.019331 72.316847,74.589737 71.066299,73.91447 69.925633,72.941293 68.815756,72.275392 68.3085,71.97105 67.605343,71.401672 67.576432,71.271579" /><path
       style="fill:#000072;fill-opacity:1;stroke:#000000;stroke-width:1.05833333;stroke-opacity:1;stroke-dasharray:none"
       d="M 55.740884,10.875493 C 53.138867,7.8108193 49.329047,5.800538 45.330562,5.3824052 44.15117,5.2590729 42.943939,5.2708114 41.798486,5.5775912 41.343541,5.6994364 40.89767,5.8677195 40.429677,5.92067 40.19568,5.9471453 39.956743,5.9440597 39.727167,5.8916185 39.497591,5.8391774 39.277339,5.73585 39.102956,5.5775912 38.823995,5.3244243 38.680455,4.9520747 38.416811,4.6829945 38.284989,4.5484544 38.11857,4.4398605 37.932303,4.4118852 c -0.09313,-0.013988 -0.189929,-0.00721 -0.278616,0.024473 -0.08869,0.031687 -0.168885,0.088806 -0.223819,0.1653036 -0.0528,0.073522 -0.08115,0.1629295 -0.08904,0.2531009 -0.0079,0.090172 0.004,0.1812516 0.02627,0.2689858 0.04453,0.1754685 0.129655,0.337803 0.186704,0.5096099 0.114254,0.3440828 0.112684,0.7167681 0.06688,1.0764188 -0.04581,0.3596506 -0.134311,0.7124992 -0.190811,1.0706257 -0.189397,1.2004924 -0.01131,2.445866 0.4319,3.577511 0.443208,1.131645 1.145019,2.152375 1.984783,3.030925 0.656397,0.686714 1.395712,1.288669 2.075868,1.951859 1.192122,1.162387 2.199927,2.51342 2.97438,3.987368"
       id="path12"
       inkscape:path-effect="#path-effect12"
       inkscape:original-d="m 55.740884,10.875493 c -2.86475,-2.9804047 -6.303576,-4.8771 -10.410322,-5.4930878 -1.133946,-0.170085 -2.403594,0.195186 -3.532076,0.195186 -0.961245,0 -1.762287,0.1679768 -2.69553,0 -0.773327,-0.1391938 -1.673088,-1.2090918 -1.673088,-0.9759293 0,0.2050242 0.123934,0.7199547 0.123934,1.0316966 0,0.738332 -0.207434,1.3955736 -0.123934,2.1470445 0.223893,2.0149442 1.281465,4.905675 2.416683,6.608436 0.531024,0.796507 1.561134,1.179789 2.075868,1.951859 1.282438,1.923579 1.156155,3.441922 2.97438,3.987368" /><path
       style="fill:#ffffff;fill-opacity:1;stroke:#000000;stroke-width:1.05833333;stroke-opacity:1;stroke-dasharray:none"
       d="m 29.281313,58.222009 c -1.960389,-0.126489 -3.888755,-0.724258 -5.576961,-1.72879 -2.034951,-1.210854 -3.712249,-3.013376 -4.778565,-5.127652 -1.066316,-2.114275 -1.518723,-4.532945 -1.294124,-6.89022 0.281663,-2.956191 1.676929,-5.842121 3.996821,-7.695901 1.360837,-1.087418 2.98956,-1.79807 4.660483,-2.29038 1.670924,-0.492311 3.394605,-0.776513 5.108083,-1.090119 1.713478,-0.313605 3.430154,-0.660139 5.061863,-1.269961 1.631709,-0.609822 3.186188,-1.497224 4.379098,-2.766602 1.276797,-1.358642 2.083793,-3.088807 2.73448,-4.836012 0.650687,-1.747206 1.168965,-3.548782 1.974952,-5.230003 0.439252,-0.916243 0.961976,-1.791811 1.549154,-2.621067 1.940138,-2.740008 4.714461,-5.023796 7.993642,-5.744041 2.842273,-0.624281 5.810764,-0.04413 8.706255,-0.334605 1.140276,-0.114392 2.265114,-0.363634 3.40814,-0.446139 2.651606,-0.191396 5.35602,0.548684 7.559879,2.03551 1.107367,0.747081 2.083347,1.668945 3.09831,2.537416 0.442985,0.379048 0.896905,0.751245 1.270307,1.198999 0.541383,0.649185 0.892947,1.431735 1.239324,2.202812 1.233804,2.746598 2.505399,5.557433 2.726516,8.560295 0.124378,1.689102 -0.0896,3.382418 -0.154917,5.074833 -0.0734,1.901827 0.03476,3.851707 -0.557696,5.66039 -0.363024,1.108269 -0.976346,2.11786 -1.394241,3.206625 -0.437251,1.139195 -0.654966,2.349765 -1.022442,3.513344 -0.291347,0.922522 -0.682654,1.824683 -1.270307,2.593184 -0.352873,0.461468 -0.772413,0.86955 -1.115391,1.338419 -0.3186,0.435542 -0.567112,0.918023 -0.867529,1.3663 -0.839466,1.252635 -2.056963,2.201605 -3.00536,3.373927 -0.699522,0.864685 -1.247198,1.84428 -1.951937,2.704719 -0.696364,0.850214 -1.536728,1.572311 -2.41668,2.230697 -1.401065,1.048287 -2.947112,1.979108 -3.965839,3.401811 -1.051843,1.468951 -1.432461,3.385619 -1.084408,5.158483 0.09844,0.501398 0.251597,0.990543 0.358306,1.490245 0.106709,0.499703 0.166483,1.018397 0.07546,1.521193 -0.127735,0.705563 -0.549437,1.335772 -1.089132,1.807858 -0.539694,0.472086 -1.192561,0.797929 -1.863001,1.052183 -1.340881,0.508507 -2.804941,0.763089 -3.988084,1.573468 -0.485582,0.332593 -0.916183,0.754628 -1.451698,0.998823 -0.267758,0.122097 -0.561563,0.197036 -0.855378,0.180452 -0.293814,-0.01658 -0.587442,-0.130467 -0.791234,-0.342766 -0.118554,-0.123503 -0.203666,-0.275706 -0.269321,-0.433813 -0.06565,-0.158106 -0.112907,-0.323092 -0.164442,-0.486347 -0.291717,-0.924112 -0.723958,-1.800411 -1.239325,-2.621068 -0.613415,-0.976787 -1.389116,-1.912003 -2.447665,-2.370114 -0.73362,-0.31749 -1.553159,-0.382532 -2.351838,-0.349198 -0.798678,0.03334 -1.590731,0.160399 -2.388578,0.209778 -2.985325,0.184764 -5.961876,-0.732856 -8.582321,-2.174927 -0.578816,-0.318532 -1.144455,-0.663299 -1.673087,-1.05958 -0.980672,-0.735146 -1.821087,-1.637207 -2.688497,-2.503092 -0.86741,-0.865884 -1.77968,-1.709375 -2.857479,-2.292904 -0.251728,-0.136288 -0.51269,-0.258538 -0.744509,-0.42647 -0.231819,-0.167932 -0.436626,-0.388984 -0.525798,-0.660994 -0.07444,-0.227079 -0.06208,-0.48145 0.03403,-0.70024 0.09611,-0.218789 0.275086,-0.39997 0.49268,-0.498759 z"
       id="path8"
       inkscape:path-effect="#path-effect8"
       inkscape:original-d="m 29.281313,58.222009 c -1.924341,-0.450292 -3.841888,-0.762146 -5.576961,-1.72879 -3.994417,-2.225374 -6.454972,-7.54534 -6.072689,-12.017872 0.192375,-2.250692 2.473625,-6.083168 3.996821,-7.695901 5.143002,-5.445316 13.372604,-3.33138 19.209527,-7.417062 2.652543,-1.856708 3.542877,-7.310136 4.709432,-10.066015 0.376661,-0.889831 0.931707,-1.880159 1.549154,-2.621067 0.854221,-1.025025 6.736379,-5.178295 7.993642,-5.744041 3.260897,-1.4673455 5.634072,-0.189086 8.706255,-0.334605 1.148355,-0.05439 2.247643,-0.405969 3.40814,-0.446139 2.504046,-0.08668 5.30896,1.022636 7.559879,2.03551 1.211408,0.545112 2.218301,1.587043 3.09831,2.537416 0.320691,0.346332 1.112388,0.77263 1.270307,1.198999 0.286028,0.772241 0.900192,1.439793 1.239324,2.202812 1.184733,2.665543 2.57579,5.576084 2.726516,8.560295 0.0858,1.698863 -0.06423,3.388188 -0.154917,5.074833 -0.09863,1.834414 -0.06504,3.886896 -0.557696,5.66039 -0.309073,1.112623 -0.958546,2.142331 -1.394241,3.206625 -0.453458,1.107692 -0.703614,2.365616 -1.022442,3.513344 -0.248746,0.895451 -0.944973,1.71482 -1.270307,2.593184 -0.211265,0.570397 -0.735399,0.928042 -1.115391,1.338419 -0.3488,0.376687 -0.49589,1.03184 -0.867529,1.3663 -1.043993,0.939557 -2.101818,2.298462 -3.00536,3.373927 -0.739341,0.88002 -1.153019,1.934366 -1.951937,2.704719 -0.782722,0.75474 -1.570728,1.532811 -2.41668,2.230697 -1.307063,1.078283 -2.975401,1.975635 -3.965839,3.401811 -1.105731,1.592188 -1.497071,3.301574 -1.084408,5.158483 0.213293,0.959779 0.954031,2.074995 0.433763,3.011438 -1.233017,2.219343 -4.483825,3.923355 -6.940217,4.433509 -0.45635,0.09478 -3.09831,0.774869 -3.09831,0.836509 0,0.01998 -0.115793,-0.388718 -0.433763,-0.92016 -0.507072,-0.8475 -0.678006,-1.779124 -1.239325,-2.621068 -1.682932,-2.5243 0.237384,0.04634 -2.447665,-2.370114 -0.611659,-0.550471 -3.870616,-0.06826 -4.740416,-0.13942 -2.474184,-0.202424 -6.383935,-0.938384 -8.582321,-2.174927 -0.572934,-0.322263 -1.098574,-0.730555 -1.673087,-1.05958 -2.068909,-1.184875 -3.8921,-3.121514 -5.545976,-4.795996 -0.181145,-0.183401 -1.315932,-0.908294 -1.270307,-1.087464 0.10772,-0.423032 0.351142,-0.799333 0.526714,-1.198999 z" /><path
       style="fill:#ffffff;fill-opacity:1;stroke:#000000;stroke-width:1.05833;stroke-dasharray:none;stroke-opacity:1"
       d="m 125.22297,130.49655 -2.6646,-3.68065 c -0.0221,-0.008 -0.0464,-0.009 -0.0692,-0.004 -0.0228,0.005 -0.0441,0.0168 -0.0608,0.0332 -0.0167,0.0164 -0.0287,0.0374 -0.0344,0.0601 -0.006,0.0227 -0.005,0.0469 0.002,0.0692 0.007,0.0223 0.0204,0.0425 0.0382,0.0578 0.0177,0.0153 0.0397,0.0255 0.0628,0.0293 0.0231,0.004 0.0472,9.3e-4 0.0688,-0.008 0.0216,-0.009 0.0407,-0.0239 0.0544,-0.0429 0.0197,-0.0271 0.028,-0.0611 0.0306,-0.0946 0.003,-0.0335 6e-5,-0.0671 4.3e-4,-0.10063 0.001,-0.11791 0.0391,-0.23388 0.0991,-0.33542 0.06,-0.10154 0.14145,-0.18922 0.23206,-0.26469 0.18121,-0.15093 0.39693,-0.25319 0.59838,-0.37582 0.73085,-0.44488 1.27103,-1.16327 1.59807,-1.9539 0.32704,-0.79063 0.45276,-1.65226 0.4778,-2.50749 0.0707,-2.4154 -0.66746,-4.85356 -2.09777,-6.80122 -1.43032,-1.94766 -3.5488,-3.38709 -5.89588,-3.96189 -1.65255,-0.40471 -3.40717,-0.38482 -5.05029,0.0566 -1.64313,0.44143 -3.17134,1.30341 -4.39955,2.4808 -0.77475,0.74269 -1.43172,1.61007 -1.92096,2.5653 -0.96056,1.87548 -1.24888,4.08665 -0.80136,6.14574 0.44753,2.05908 1.62764,3.9511 3.28001,5.25869 l 1.64211,1.64514 v -0.0279"
       id="path42"
       inkscape:path-effect="#path-effect42"
       inkscape:original-d="m 125.22297,130.49655 c -0.34547,-0.77728 -2.34928,-2.55547 -2.6646,-3.68065 -0.0566,0.0382 0.062,0.12689 0.062,0.19519 0,0.0659 0.008,-0.13339 0.031,-0.19519 0.14702,-0.39692 0.70528,-0.67325 0.9295,-0.97593 0.76527,-1.03307 2.07587,-3.22565 2.07587,-4.46139 0,-4.78522 -3.32177,-9.56182 -7.99365,-10.76311 -3.56079,-0.91559 -6.73578,0.58337 -9.44984,2.53742 -0.8724,0.6281 -1.26558,1.77888 -1.92096,2.5653 -3.38114,4.05721 -1.93189,8.83663 2.47865,11.40443 0.54737,0.54838 1.09474,1.09676 1.64211,1.64514 -0.0123,-0.0721 0,0.0179 0,-0.0279" /><path
       style="fill:#000072;fill-opacity:1;stroke:#000000;stroke-width:1.05833333;stroke-opacity:1;stroke-dasharray:none"
       d="m 74.268784,20.216532 c 4.134078,-1.259396 8.226787,-2.654583 12.269309,-4.182555 0.469491,-0.177456 0.944139,-0.358175 1.442488,-0.417846 0.498349,-0.05967 1.031238,0.01358 1.43894,0.306311 0.278576,0.200018 0.483809,0.492629 0.607498,0.812492 0.123689,0.319864 0.168902,0.666343 0.164409,1.009259 -0.009,0.685833 -0.211165,1.352164 -0.338143,2.026199 -0.34387,1.825364 -0.133771,3.717249 0.309832,5.520972 0.503297,2.046442 1.301638,4.010132 1.828004,6.050762 0.223153,0.865125 0.396922,1.74221 0.557696,2.621068 0.514474,2.812327 0.88591,5.77935 -0.06197,8.476644 -0.282093,0.802727 -0.677728,1.568584 -0.867526,2.397996 -0.04132,0.180566 -0.07296,0.364392 -0.138778,0.537538 -0.06582,0.173145 -0.170209,0.338141 -0.325968,0.438393 -0.103718,0.06676 -0.226093,0.101817 -0.349155,0.110153 -0.123063,0.0083 -0.246947,-0.0093 -0.365906,-0.04191 -0.237919,-0.06519 -0.454956,-0.188458 -0.679179,-0.291315 -0.821229,-0.376718 -1.737406,-0.479184 -2.635379,-0.579075 -0.897974,-0.09989 -1.814321,-0.207148 -2.631751,-0.59204 -1.122179,-0.528386 -1.953844,-1.536124 -2.553197,-2.622059 -0.599353,-1.085935 -1.000366,-2.268023 -1.505588,-3.40082 -0.860978,-1.930466 -2.022967,-3.713191 -3.284209,-5.409436 -0.885721,-1.191206 -1.848989,-2.398406 -2.168819,-3.847951 -0.122619,-0.55574 -0.145148,-1.128133 -0.223956,-1.691757 -0.07881,-0.563624 -0.221,-1.134588 -0.550622,-1.598519 -0.34096,-0.479888 -0.85322,-0.806009 -1.361641,-1.102749 -0.50842,-0.29674 -1.035848,-0.583788 -1.437091,-1.014543 -0.200622,-0.215377 -0.366988,-0.46601 -0.463671,-0.744018 -0.09668,-0.278009 -0.121236,-0.584402 -0.0456,-0.868858 0.07564,-0.284457 0.255633,-0.544358 0.508543,-0.694934 0.126455,-0.07529 0.269703,-0.122883 0.416369,-0.135057 0.146666,-0.01217 0.29655,0.01138 0.431156,0.07088 0.09165,0.04051 0.176012,0.09746 0.247864,0.167302"
       id="path11"
       inkscape:path-effect="#path-effect11"
       inkscape:original-d="m 74.268784,20.216532 c 4.060852,-2.846554 7.375668,-3.907299 12.269309,-4.182555 0.390075,-0.02194 2.729592,-0.248184 2.881428,-0.111535 0.732574,0.659288 0.362493,3.014092 0.433764,3.84795 0.157993,1.84844 0.189179,3.675069 0.309832,5.520972 0.141489,2.16471 1.315162,3.999482 1.828004,6.050762 0.216685,0.866714 0.351075,1.753301 0.557696,2.621068 0.665353,2.794381 0.382551,5.676286 -0.06197,8.476644 -0.15082,0.950135 -0.600834,1.815111 -0.867526,2.397996 -0.14991,0.327646 -0.464746,1.336243 -0.464746,0.975931 0,-0.280511 -1.124871,-0.22307 -1.39424,-0.22307 -1.225408,0 -4.307317,-0.307319 -5.26713,-1.171115 -1.814007,-1.632545 -2.783728,-3.982865 -4.058785,-6.022879 -1.117787,-1.788388 -2.163027,-3.624239 -3.284209,-5.409436 -0.584877,-0.931267 -1.825993,-2.84522 -2.168819,-3.847951 -0.348728,-1.01999 -0.214085,-2.382314 -0.774578,-3.290276 -0.254278,-0.411914 -2.398228,-4.489275 -1.951934,-4.489275 0.09968,0 0.154074,0.133539 0.247864,0.167302" /><path
       style="fill:url(#radialGradient14);fill-opacity:1;stroke:#000000;stroke-width:1.05833333;stroke-opacity:1;stroke-dasharray:none"
       d="m 24.819744,45.367625 c -0.347385,0.154061 -0.74438,0.193759 -1.115392,0.111535 -0.345103,-0.07648 -0.660987,-0.253759 -0.94298,-0.466892 -0.281992,-0.213133 -0.533989,-0.462691 -0.792074,-0.704223 -0.749554,-0.701479 -1.559851,-1.343762 -2.227595,-2.12352 -0.667744,-0.779758 -1.194997,-1.730629 -1.242513,-2.756127 -0.0237,-0.511433 0.07319,-1.024456 0.247865,-1.50572 0.289648,-0.798053 0.793341,-1.512883 1.424857,-2.080309 0.631515,-0.567427 1.388509,-0.989138 2.192869,-1.260781 1.608719,-0.543287 3.374822,-0.482179 5.02656,-0.08861 1.113835,0.265403 2.187082,0.676128 3.28421,1.003813 2.008353,0.599846 4.131619,0.935085 5.948756,1.979742 1.379488,0.793057 2.543576,2.005983 3.129296,3.485462 0.115911,0.29278 0.208936,0.59399 0.30983,0.892278 0.156147,0.461638 0.334073,0.937877 0.278847,1.422069 -0.02921,0.256076 -0.123422,0.501462 -0.24752,0.727355 -0.124098,0.225893 -0.277886,0.433951 -0.434108,0.638946 -0.969602,1.272314 -2.118223,2.502238 -3.625024,3.039324 -1.085489,0.386913 -2.27935,0.380626 -3.413298,0.175323 -1.133949,-0.205303 -2.222996,-0.601411 -3.310035,-0.98395 -1.489886,-0.524305 -2.987627,-1.026286 -4.492551,-1.50572 z"
       id="path13"
       inkscape:path-effect="#path-effect13"
       inkscape:original-d="m 24.819744,45.367625 c -0.371797,0.03718 -0.741809,0.118689 -1.115392,0.111535 -0.520307,-0.01 -1.354067,-0.89253 -1.735054,-1.171115 -1.71251,-1.252225 -3.563653,-2.522394 -3.470108,-4.879647 0.01777,-0.447701 0.02676,-1.107744 0.247865,-1.50572 1.613269,-2.903767 5.460211,-3.966985 8.644286,-3.429695 1.108456,0.187044 2.198566,0.703185 3.28421,1.003813 2.094312,0.57994 4.005807,0.930592 5.948756,1.979742 0.32403,0.174969 2.601762,2.915748 3.129296,3.485462 0.163407,0.176474 0.244491,0.657069 0.30983,0.892278 0.124367,0.447707 0.345318,0.943504 0.278847,1.422069 -0.07458,0.536978 -0.376391,0.954249 -0.681628,1.366301 -1.066617,1.439878 -1.042217,3.194285 -3.625024,3.039324 -2.273462,-0.136403 -4.49249,-0.443595 -6.723333,-0.808627 -2.068263,-0.338429 -2.683499,-0.187749 -4.492551,-1.50572 z" /><path
       style="fill:#000072;fill-opacity:1;stroke:#000000;stroke-width:0.264583;stroke-opacity:1"
       d="M 73.989934,47.040646 Z"
       id="path14"
       inkscape:path-effect="#path-effect14"
       inkscape:original-d="m 73.989934,47.040646 c -1.363255,0.334605 -1.363255,0.334605 0,0 z" /><path
       style="fill:#ffffff;fill-opacity:1;stroke:#000000;stroke-width:0.264583;stroke-opacity:1"
       d="m 146.11861,59.448892 -2.26177,1.923974"
       id="path15"
       inkscape:path-effect="#path-effect15"
       inkscape:original-d="m 146.11861,59.448892 c -1.04352,1.063363 -3.34461,1.549157 -2.26177,1.923974" /><path
       style="fill:#000000;fill-opacity:1;stroke:#000000;stroke-width:0.264583;stroke-opacity:1"
       d="m 27.515275,58.333544 c 2.218516,-0.133402 4.439463,-0.226368 6.661366,-0.278836 0.815745,-0.01926 1.63171,-0.03307 2.447666,-0.02788 1.469276,0.0093 2.975005,0.07514 4.36862,-0.390371 1.406227,-0.46972 2.592567,-1.447718 3.97892,-1.973207 0.693176,-0.262745 1.446045,-0.408978 2.179158,-0.299098 0.366556,0.05494 0.724889,0.174201 1.043355,0.363836 0.318466,0.189636 0.596295,0.450592 0.792206,0.765236 0.196804,0.316078 0.308521,0.682583 0.336139,1.053898 0.02762,0.371314 -0.02772,0.747099 -0.147261,1.099728 -0.239082,0.705258 -0.72828,1.305972 -1.304268,1.777976 -1.29331,1.059827 -2.975231,1.492624 -4.461568,2.258579 -0.993152,0.511801 -1.914299,1.180721 -2.974377,1.533604 -1.119379,0.372623 -2.334293,0.369659 -3.501091,0.195186 -2.795146,-0.417961 -5.363267,-1.778292 -7.714795,-3.346045 -0.327658,-0.218448 -0.6539,-0.442566 -0.940038,-0.713129 -0.286137,-0.270564 -0.532614,-0.591238 -0.671084,-0.959892 -0.126217,-0.336031 -0.158733,-0.706706 -0.09295,-1.05958 z"
       id="path16"
       inkscape:path-effect="#path-effect16"
       inkscape:original-d="m 27.515275,58.333544 c 2.225087,-0.0578 4.430585,-0.356052 6.661366,-0.278836 0.781699,0.02706 1.666378,0.103952 2.447666,-0.02788 1.247016,-0.210426 3.131209,-0.529574 4.36862,-0.390371 2.043253,0.229856 6.702946,-1.917618 7.993639,-1.143233 1.627902,0.976704 0.09728,2.996149 -1.11539,3.931602 -1.352638,1.043422 -3.003,1.438167 -4.461568,2.258579 -0.960332,0.540168 -1.953467,1.16609 -2.974377,1.533604 -1.052505,0.378886 -2.405452,-0.0021 -3.501091,0.195186 -3.292039,0.592542 -5.582987,-0.605256 -7.714795,-3.346045 -0.17602,-0.226304 -1.565503,-1.426692 -1.611122,-1.673021 -0.06456,-0.348621 -0.06197,-0.706388 -0.09295,-1.05958 z" /><path
       style="fill:#171a57;fill-opacity:1;stroke:#000000;stroke-width:1.05833333;stroke-opacity:1;stroke-dasharray:none"
       d="m 42.573064,60.285402 c -2.682503,0.597704 -5.43126,0.897556 -8.179541,0.892278 -1.012351,-0.0019 -2.027401,-0.04502 -3.035158,0.05133 -1.007757,0.09635 -2.019531,0.339735 -2.882613,0.868836 -0.631731,0.387274 -1.179885,0.935371 -1.481243,1.612312 -0.150679,0.33847 -0.23809,0.706307 -0.243276,1.076766 -0.0052,0.370458 0.07283,0.743248 0.237328,1.075221 0.246372,0.497194 0.688609,0.893096 1.208341,1.087464 0.691497,0.258605 1.481182,0.156774 2.152753,-0.149881 0.671571,-0.306655 1.239487,-0.802147 1.749837,-1.335615 0.51035,-0.533467 0.973513,-1.111408 1.498512,-1.630466 0.524999,-0.519058 1.123154,-0.98432 1.817962,-1.233894 0.318234,-0.114309 0.653584,-0.181787 0.99146,-0.195186 0.506335,-0.02008 1.012045,0.08053 1.518173,0.05577 0.638261,-0.03122 1.247657,-0.259419 1.86757,-0.414531 0.309956,-0.07756 0.626121,-0.137321 0.945553,-0.144447 0.319432,-0.0071 0.64339,0.0399 0.935833,0.168606 0.133568,0.05878 0.259462,0.133987 0.393442,0.191827 0.13398,0.05784 0.2799,0.09839 0.424942,0.0823 0.07252,-0.008 0.1439,-0.0305 0.205678,-0.06933 0.06178,-0.03883 0.113638,-0.09439 0.144144,-0.160675 0.0305,-0.06628 0.03885,-0.143299 0.01906,-0.213527 -0.0198,-0.07023 -0.06853,-0.13266 -0.133838,-0.165196 -0.03722,-0.01854 -0.07891,-0.02731 -0.120487,-0.02824 -0.04158,-9.3e-4 -0.08309,0.0058 -0.123124,0.01706 -0.08007,0.02249 -0.153864,0.06253 -0.229282,0.0976 -0.07542,0.03507 -0.155116,0.06582 -0.238268,0.06766 -0.04158,9.19e-4 -0.0836,-0.0056 -0.1219,-0.02179 -0.03831,-0.01619 -0.07277,-0.04231 -0.09643,-0.07651 -0.02969,-0.04292 -0.04117,-0.0974 -0.03446,-0.149157 0.0067,-0.05176 0.03098,-0.100612 0.06581,-0.13948 0.03483,-0.03887 0.0799,-0.06796 0.128555,-0.08685 0.04866,-0.01889 0.100851,-0.0278 0.153017,-0.02951 0.104331,-0.0034 0.207303,0.02145 0.308545,0.04688 0.101242,0.02543 0.203644,0.05177 0.30803,0.05139 0.172168,-6.31e-4 0.342621,-0.0783 0.456058,-0.207818 0.113438,-0.129515 0.167972,-0.308717 0.145911,-0.479466 -0.02206,-0.17075 -0.120352,-0.330206 -0.262983,-0.426636 -0.142631,-0.09643 -0.327228,-0.128228 -0.493902,-0.08508 z"
       id="path17"
       inkscape:path-effect="#path-effect17"
       inkscape:original-d="m 42.573064,60.285402 c -2.529562,1.290325 -5.450028,0.504415 -8.179541,0.892278 -2.026851,0.288015 -4.004273,-0.06388 -5.917771,0.920162 -1.898581,0.976374 -2.824576,2.159501 -1.487191,3.764299 0.332435,0.398904 0.638315,1.001964 1.208341,1.087464 2.034863,0.305218 4.773446,-4.349856 7.219064,-4.349856 0.284107,0 0.645422,-0.160583 0.99146,-0.195186 0.542911,-0.05429 1.000275,0.107556 1.518173,0.05577 1.215914,-0.121587 2.436887,-0.390372 3.748956,-0.390372 0.322672,0 0.881843,-0.02577 1.053425,-0.334603 0.0082,-0.01474 -0.897422,0.08463 -0.929494,0.05577 -0.04154,-0.03739 0.628218,-0.03558 0.929494,-0.306721 0.3165,-0.284837 -0.132871,-1.104768 -0.154916,-1.198999 z" /><ellipse
       style="fill:#fefeff;fill-opacity:1;stroke:#000000;stroke-width:1.05833333;stroke-opacity:1;stroke-dasharray:none"
       id="path18"
       cx="48.181007"
       cy="27.07592"
       rx="5.1741791"
       ry="5.855576" /><ellipse
       style="fill:#ffffff;fill-opacity:1;stroke:#000000;stroke-width:1.05833333;stroke-opacity:1;stroke-dasharray:none"
       id="path18-3"
       cx="58.373142"
       cy="27.987305"
       rx="5.1741791"
       ry="5.855576" /><ellipse
       style="fill:#161d37;fill-opacity:1;stroke:#000000;stroke-width:0.264583;stroke-opacity:1"
       id="path19"
       cx="48.119041"
       cy="28.177328"
       rx="1.5491554"
       ry="1.7148473" /><ellipse
       style="fill:#161d37;fill-opacity:1;stroke:#000000;stroke-width:0.264583;stroke-opacity:1"
       id="path19-9"
       cx="58.01561"
       cy="29.585627"
       rx="1.5491554"
       ry="1.7148473" /><path
       style="fill:#000072;fill-opacity:1;stroke:#000000;stroke-width:1.05833333;stroke-opacity:1;stroke-dasharray:none"
       d="m 56.422514,76.959853 c -0.921891,-0.776522 -1.746267,-1.668692 -2.447665,-2.648952 -0.04509,-0.06302 -0.08985,-0.126693 -0.124566,-0.195968 -0.03471,-0.06927 -0.05924,-0.14483 -0.06133,-0.222288 -0.0034,-0.127255 0.05548,-0.251818 0.145653,-0.341675 0.09017,-0.08986 0.209288,-0.146999 0.332918,-0.177351 0.247259,-0.0607 0.506277,-0.01876 0.760753,-0.01076 0.584553,0.01836 1.160074,-0.14478 1.707431,-0.35079 0.547356,-0.20601 1.078726,-0.456559 1.638744,-0.625139 0.753779,-0.226907 1.543528,-0.300743 2.319095,-0.435522 0.775567,-0.13478 1.559542,-0.339942 2.204438,-0.791361 0.366819,-0.256769 0.676598,-0.58491 0.994565,-0.900161 0.317968,-0.315251 0.652197,-0.623729 1.05032,-0.828629 0.287087,-0.147754 0.606334,-0.238828 0.929211,-0.239684 0.322877,-8.56e-4 0.649058,0.0916 0.909775,0.282065 0.260716,0.190466 0.451252,0.481695 0.49802,0.801168 0.02338,0.159736 0.01119,0.32493 -0.0384,0.478563 -0.04959,0.153634 -0.136779,0.295374 -0.253715,0.406678 -0.04026,0.03832 -0.08388,0.073 -0.123931,0.111535 -0.183791,0.176836 -0.282303,0.42479 -0.342083,0.672734 -0.05978,0.247944 -0.08616,0.503376 -0.153649,0.749335 -0.121101,0.441371 -0.370433,0.837119 -0.650644,1.198997 -1.064791,1.375125 -2.611928,2.337472 -4.27567,2.844138 -1.619069,0.493062 -3.362836,0.57056 -5.019262,0.22307 z"
       id="path20"
       inkscape:path-effect="#path-effect20"
       inkscape:original-d="m 56.422514,76.959853 c -1.201952,-0.575175 -1.731983,-1.682819 -2.447665,-2.648952 -0.03304,-0.0446 -0.144368,-0.418256 -0.185899,-0.418256 -0.0635,0 0.574648,-0.170879 1.239324,-0.529789 1.037233,-0.560083 2.23388,-0.642255 3.346175,-0.975929 1.467392,-0.4402 3.163728,-0.492617 4.523533,-1.226883 0.624816,-0.337389 1.983888,-1.756238 2.044885,-1.72879 0.166889,0.0751 1.374704,1.42722 2.044886,1.72879 0.05068,0.02281 -0.107114,0.05856 -0.123931,0.111535 -0.146696,0.462066 -0.366324,0.956217 -0.495732,1.422069 -0.116318,0.418727 -0.451998,0.805691 -0.650644,1.198997 -1.162378,2.301417 -1.81478,2.475018 -4.27567,2.844138 -1.714209,0.257119 -3.306066,-0.06378 -5.019262,0.22307 z" /><path
       style="fill:#000072;fill-opacity:1;stroke:#000000;stroke-width:0.899583;stroke-dasharray:none;stroke-opacity:1"
       d="m 56.050716,73.446507 c 0.03289,-0.09935 0.09137,-0.190106 0.168233,-0.261123 0.07687,-0.07102 0.171959,-0.12214 0.273593,-0.147086 0.101634,-0.02495 0.209591,-0.02366 0.310602,0.0037 0.101012,0.02736 0.194862,0.08073 0.270015,0.153557 0.07926,0.07681 0.137488,0.175118 0.166749,0.281542 0.02926,0.106424 0.02948,0.220681 6.25e-4,0.327216 -0.02885,0.106535 -0.0867,0.205066 -0.165673,0.282177 -0.07897,0.07711 -0.178848,0.132599 -0.28604,0.158909 -0.107192,0.02631 -0.221412,0.02337 -0.327109,-0.0084 -0.105697,-0.03178 -0.202592,-0.09233 -0.277493,-0.173403 -0.0749,-0.08107 -0.127608,-0.182443 -0.150947,-0.29032 -0.02334,-0.107878 -0.01725,-0.221973 0.01745,-0.326752 0.04806,-0.145139 0.149767,-0.269434 0.274525,-0.35781 0.124757,-0.08838 0.271649,-0.142333 0.421836,-0.170942 0.300375,-0.05722 0.609338,-0.01573 0.914761,-0.001 0.327146,0.01574 0.657909,7.03e-4 0.979351,0.06353 0.160721,0.03141 0.318609,0.08261 0.461021,0.163457 0.142412,0.08085 0.269123,0.192277 0.356647,0.330688 0.105233,0.166417 0.15017,0.365503 0.156937,0.562284 0.0068,0.196781 -0.02274,0.392909 -0.05671,0.586856 -0.03396,0.193946 -0.07255,0.38774 -0.08422,0.584291 -0.01167,0.196551 0.0046,0.397806 0.07694,0.580914 0.06689,0.169189 0.17862,0.316102 0.285845,0.463076 0.107226,0.146975 0.212923,0.299702 0.26478,0.474085 0.02593,0.08719 0.03782,0.179183 0.02831,0.26965 -0.0095,0.09047 -0.04099,0.179374 -0.09584,0.251942 -0.05485,0.07257 -0.133684,0.127975 -0.222206,0.148915 -0.08852,0.02094 -0.186207,0.0058 -0.260883,-0.04618 -0.04567,-0.03177 -0.0815,-0.07556 -0.123933,-0.111535 -0.07534,-0.06387 -0.170737,-0.10179 -0.268477,-0.11605 -0.09774,-0.01426 -0.19787,-0.0057 -0.294222,0.01606 -0.192704,0.04349 -0.369332,0.137998 -0.552692,0.211521 -0.42245,0.169392 -0.880079,0.227095 -1.332275,0.278836 -0.08251,0.0094 -0.166935,0.01864 -0.247864,0 -0.104281,-0.02402 -0.194948,-0.09407 -0.25456,-0.182945 -0.05961,-0.08887 -0.08974,-0.19534 -0.09774,-0.302052 -0.016,-0.213424 0.05262,-0.422697 0.104437,-0.630351 0.256307,-1.02704 0.09728,-2.151513 -0.433764,-3.067206 z"
       id="path22"
       inkscape:path-effect="#path-effect22"
       inkscape:original-d="m 56.050716,73.446507 c 0.340815,-0.08365 1.106094,0.08986 1.022443,-0.250955 -0.08365,-0.340812 -1.339593,0.401177 -1.022443,0.250955 0.510913,-0.242004 1.077669,-0.342638 1.611122,-0.529791 1.086454,-0.381164 1.485138,-0.752171 1.797019,0.557675 0.191309,0.803468 0.162726,1.497994 0.09295,2.314345 -0.02725,0.31881 0.199959,1.381532 0,1.561489 -0.04131,0.03718 -0.06835,-0.111535 -0.123933,-0.111535 -0.299617,0 -0.795433,0.05394 -1.115391,0.111535 -0.384492,0.0692 -0.940699,0.396303 -1.332275,0.278836 -0.08849,-0.02654 -0.27722,0 -0.247864,0 0.0088,0 -0.161237,-0.647573 -0.247864,-1.115348 -0.210029,-1.134115 -0.530845,-1.873168 -0.433764,-3.067206 z" /><path
       style="fill:#000072;fill-opacity:1;stroke:#000000;stroke-width:1.05833;stroke-dasharray:none;stroke-opacity:1"
       d="m 123.12914,101.02348 c -0.61914,0.59072 -1.36319,1.04988 -2.16881,1.33842 -1.61984,0.58015 -3.41549,0.4547 -5.08871,0.0537 -1.67322,-0.40097 -3.27093,-1.06462 -4.91884,-1.55944 -3.36883,-1.011559 -6.93955,-1.307555 -10.44131,-0.975931 -1.765359,0.167181 -3.549737,0.491251 -5.298105,0.195191 C 92.970531,99.695644 90.976053,98.293903 89.60542,96.478438 88.901154,95.545606 88.343672,94.498745 87.994298,93.38335 87.680148,92.380409 87.527705,91.310344 87.002841,90.399795 86.564613,89.639545 85.884036,89.033957 85.11287,88.615238 84.430846,88.244921 83.682923,88.016135 82.944053,87.778726 81.794726,87.409431 80.651481,87.013 79.473945,86.747029 78.159329,86.450096 76.809271,86.317511 75.508108,85.966286 73.88045,85.526929 72.295459,84.701755 71.294404,83.345217 c -0.92764,-1.257053 -1.276591,-2.924154 -0.930978,-4.447718 0.345613,-1.523565 1.379739,-2.876922 2.758982,-3.61067 l 1.450976,-1.836191 0.0341,0.06044 c 2.619485,0.04441 5.223744,0.792721 7.467245,2.145636 2.000731,1.206515 3.696757,2.867784 5.694204,4.079729 1.678051,1.018153 3.538247,1.700649 5.250942,2.65938 1.080469,0.604824 2.09753,1.316974 3.171023,1.934094 1.197597,0.688465 2.462002,1.256694 3.648382,1.964314 1.38915,0.828564 2.66154,1.842416 4.05755,2.659379 1.15811,0.677746 2.39412,1.21573 3.54609,1.903874 1.57643,0.941703 2.97387,2.151257 4.47998,3.201766 1.5061,1.050508 3.17562,1.96003 4.99899,2.177433 0.63294,0.07547 1.27248,0.06594 1.90943,0.09066 0.87632,0.03401 1.76379,0.136552 2.57388,0.472471 0.81009,0.33592 1.54204,0.929841 1.89283,1.733604 0.34586,0.792462 0.28081,1.751562 -0.16889,2.490062 z"
       id="path26"
       inkscape:path-effect="#path-effect26"
       inkscape:original-d="m 123.12914,101.02348 c 0.10677,0.57653 -1.67794,1.07336 -2.16881,1.33842 -2.65642,1.4344 -7.50514,-0.26319 -10.00755,-1.50572 -3.28665,-1.631931 -6.94434,-1.325612 -10.44131,-0.975931 -1.758232,0.175791 -3.538819,0.776811 -5.298105,0.195191 -2.34976,-0.776832 -4.107106,-1.525926 -5.607945,-3.597002 -0.640164,-0.883391 -1.233834,-2.076455 -1.611122,-3.095088 -0.365865,-0.987798 -0.365098,-2.097738 -0.991457,-2.983555 -0.487283,-0.689129 -1.253437,-1.240343 -1.889971,-1.784557 -0.599917,-0.51291 -1.446372,-0.595706 -2.168817,-0.836512 -1.159684,-0.386545 -2.275273,-0.76287 -3.470108,-1.031697 -1.291997,-0.290687 -2.725134,-0.312497 -3.965837,-0.780743 -1.456115,-0.549545 -3.201715,-1.406729 -4.213704,-2.621069 -1.901105,-2.281234 -0.613039,-6.796913 1.828004,-8.058388 0.483659,-0.612064 0.967317,-1.224127 1.450976,-1.836191 0.02069,-0.09554 0.03275,0.05805 0.0341,0.06044 2.30633,1.529788 5.049647,1.017889 7.467245,2.145636 1.822549,0.850171 3.94528,2.917175 5.694204,4.079729 1.615444,1.073827 3.531121,1.801973 5.250942,2.65938 1.097933,0.547368 2.155451,1.259017 3.171023,1.934094 1.121945,0.745785 2.482094,1.240736 3.648382,1.964314 1.37608,0.853734 2.66899,1.807373 4.05755,2.659379 1.14919,0.705136 2.41182,1.172744 3.54609,1.903874 3.00932,1.939755 5.68963,5.073881 9.47897,5.379199 0.63037,0.05079 1.28057,0.01104 1.90943,0.09066 0.62635,0.07931 4.46671,1.352753 4.46671,2.206075 0,0.930452 0.14437,1.25164 -0.16889,2.490061 z"
       transform="matrix(0.90867478,0,0,0.92268346,6.3688759,7.9891657)" /><path
       style="fill:#ffffff;fill-opacity:1;stroke:#000000;stroke-width:1.05833;stroke-dasharray:none;stroke-opacity:1"
       d="M 71.139488,78.019433 Z"
       id="path25"
       inkscape:path-effect="#path-effect25"
       inkscape:original-d="m 71.139488,78.019433 c 0.382127,-0.130125 0.764252,-0.260247 0,0 z" /><path
       style="fill:#000072;fill-opacity:1;stroke:#000000;stroke-width:1.05833;stroke-dasharray:none;stroke-opacity:1"
       d="m 132.84482,88.196982 c 1.35378,0.6505 2.49075,1.572387 3.59404,2.5653 1.31918,1.187217 2.3717,2.90553 3.00536,4.545041 0.14978,0.387541 0.21613,0.807175 0.40278,1.171115 0.0352,0.06858 0.19421,0.163563 0.12393,0.195188 -0.26131,0.117587 -1.13152,-0.01654 -1.61112,-0.05577 -0.34417,-0.02816 -2.44767,0.01299 -2.44767,0.167301 0,0.04663 -0.1771,-0.868524 -0.30983,-1.226881 -0.37895,-1.023128 -0.87382,-2.066338 -1.4562,-2.983555 -0.61283,-0.965171 -1.04488,-2.041282 -1.67309,-2.983556 -0.0249,-0.03742 -0.22538,-0.255391 -0.21688,-0.278836 0.14321,-0.395245 0.39245,-0.743567 0.58868,-1.115349 z"
       id="path27" /><path
       style="fill:#ffffff;fill-opacity:1;stroke:#000000;stroke-width:1.05833;stroke-dasharray:none;stroke-opacity:1"
       d="m 61.428754,99.685064 c -0.775883,2.490666 -0.910061,5.108836 -1.115391,7.695896 -0.322181,4.05932 0.526886,8.0601 0.929492,12.04576 0.12279,1.21557 0.03695,2.47424 0.185899,3.68065 0.04598,0.37241 0.394573,1.73617 0.03098,2.06339 -0.116596,0.10494 -0.173461,0.30388 -0.278847,0.44614 -0.04839,0.0653 -0.135816,-0.11761 -0.216881,-0.11153 -0.976612,0.0732 -2.060866,0.10379 -3.005363,0.36248 -2.435817,0.66718 -5.360077,2.07385 -5.360077,4.99119 0,0.41972 0.247864,0.84377 0.247864,1.28265 0,0.58517 0.264861,1.08523 0.433766,1.61725 0.26294,0.82824 0.588677,1.92397 1.270307,2.53742 1.232075,1.10882 5.444318,1.05958 7.126113,1.05958 1.31545,0 2.606013,0.0105 3.903871,-0.22307 0.582481,-0.10484 1.19479,-0.33461 1.766039,-0.33461 0.146917,0 0.59613,-0.20189 0.495728,-0.11153 -0.152924,0.13763 0.666986,-0.81852 0.898512,-1.61725 0.360418,-1.2434 0.743593,-2.71717 0.743593,-4.01526 0,-2.99333 -0.53086,-5.95369 -0.402781,-8.95066 0.09704,-2.27056 -0.185896,-4.53992 -0.185896,-6.80363 0,-1.10905 0.30983,-2.36586 0.30983,-3.37392 0,-0.14102 -3.628808,-4.1319 -4.182719,-4.87965 -0.841499,-1.13598 -1.110046,-2.54478 -1.704072,-3.79218 -0.584042,-1.22644 -1.348301,-2.3074 -1.889969,-3.569116 z"
       id="path28" /><path
       style="fill:#ffffff;fill-opacity:1;stroke:#000000;stroke-width:1.05833;stroke-dasharray:none;stroke-opacity:1"
       d="m 71.870061,100.60523 c -0.404785,0.30045 -0.728795,0.70868 -0.929494,1.17111 -0.218038,0.50238 -0.288754,1.05372 -0.402778,1.58937 -0.241098,1.1326 -0.682151,2.21479 -0.929495,3.34605 -0.329054,1.50497 -0.308419,3.06062 -0.340815,4.6008 -0.01252,0.5951 -0.03318,1.19003 -0.06197,1.78456"
       id="path36"
       inkscape:path-effect="#path-effect36"
       inkscape:original-d="m 71.870061,100.60523 c -0.30983,0.39037 -0.651833,0.75724 -0.929494,1.17111 -0.251339,0.37464 -0.294021,1.13914 -0.402778,1.58937 -0.268812,1.11283 -0.750605,2.21909 -0.929495,3.34605 -0.245647,1.54751 -0.208597,3.05393 -0.340815,4.6008 -0.05365,0.62773 -0.236177,1.57551 -0.06197,1.78456" /><path
       style="fill:#ffffff;fill-opacity:1;stroke:#000000;stroke-width:1.05833;stroke-dasharray:none;stroke-opacity:1"
       d="m 78.593396,104.89932 c -1.881462,2.55775 -2.927783,5.71971 -2.943397,8.89489 -0.0063,1.28805 0.152967,2.57844 0.495731,3.82007 0.258684,0.93706 0.620367,1.84312 0.881694,2.77944 0.261326,0.93632 0.421479,1.92157 0.26468,2.88095 -0.156884,0.9599 -0.620104,1.83837 -0.929492,2.76049 -0.479261,1.42842 -0.586266,2.95472 -0.588679,4.46139 -0.0011,0.68048 0.01856,1.36324 0.123933,2.03551 0.09894,0.63122 0.27289,1.24956 0.354759,1.88321 0.08187,0.63366 0.06596,1.30008 -0.199845,1.88109 -0.294689,0.64414 -0.879086,1.12833 -1.534672,1.39661 -0.655587,0.26827 -1.378733,0.33609 -2.086304,0.30281 -1.415143,-0.0666 -2.801952,-0.52329 -4.21775,-0.47254 -1.122612,0.0402 -2.210222,0.3983 -3.32766,0.51323 -0.558718,0.0575 -1.129292,0.053 -1.674657,-0.0813 -0.545365,-0.13434 -1.06606,-0.40516 -1.442168,-0.82231 -0.378094,-0.41935 -0.592228,-0.9627 -0.724312,-1.51166 -0.132085,-0.54897 -0.189462,-1.113 -0.298131,-1.66708 -0.121977,-0.62193 -0.309117,-1.23523 -0.340815,-1.86821 -0.04688,-0.93615 0.25696,-1.87367 0.779836,-2.6516 0.522875,-0.77793 1.25621,-1.40152 2.07061,-1.86556 1.338298,-0.76255 2.914982,-1.12297 4.089771,-2.11916 0.56303,-0.47743 1.01325,-1.09256 1.270306,-1.78456 0.149098,-0.40138 0.233144,-0.82684 0.247865,-1.25476 -0.562673,-3.12261 -0.677814,-6.32551 -0.340813,-9.48046 0.256631,-2.40254 0.772795,-4.77009 1.084409,-7.16611 0.129564,-0.99623 0.226014,-2.00738 0.557696,-2.95567 0.289877,-0.82876 0.757965,-1.5947 1.363257,-2.2307"
       id="path37"
       inkscape:path-effect="#path-effect37"
       inkscape:original-d="m 78.593396,104.89932 c -1.061688,2.89054 -2.654485,5.77479 -2.943397,8.89489 -0.112379,1.21365 0.305345,2.62069 0.495731,3.82007 0.299604,1.88744 1.455968,3.71003 1.146374,5.66039 -0.151482,0.95431 -0.595448,1.8586 -0.929492,2.76049 -0.475107,1.28274 -0.69079,3.08295 -0.588679,4.46139 0.04898,0.6612 -0.01884,1.39312 0.123933,2.03551 0.255757,1.15086 1.090647,2.71164 0.154914,3.7643 -1.324692,1.49022 -5.769168,1.22688 -7.838726,1.22688 -1.211358,0 -5.5626,0.40329 -6.444485,-0.39037 -0.833602,-0.75021 -0.853837,-2.16714 -1.022443,-3.17874 -0.105174,-0.63103 -0.422492,-1.20666 -0.340815,-1.86821 0.210667,-1.70632 1.423146,-3.55377 2.850446,-4.51716 1.372053,-0.9261 2.91165,-0.75596 4.089771,-2.11916 0.4699,-0.54372 0.931751,-1.17518 1.270306,-1.78456 0.188913,-0.34003 -0.148031,-1.32602 0.247865,-1.25476 -0.13735,-3.11322 -0.919854,-6.35376 -0.340813,-9.48046 0.43322,-2.33929 0.867149,-4.81979 1.084409,-7.16611 0.09064,-0.97882 0.257617,-2.01046 0.557696,-2.95567 0.13389,-0.42174 1.363257,-3.178912 1.363257,-2.2307" /><path
       style="fill:#ffffff;fill-opacity:1;stroke:#000000;stroke-width:1.05833;stroke-dasharray:none;stroke-opacity:1"
       d="m 64.836896,137.69054 c -1.297,-1.81043 -1.061349,-3.89633 -0.247864,-5.79981"
       id="path47" /><path
       style="fill:#ffffff;fill-opacity:1;stroke:#000000;stroke-width:1.05833;stroke-dasharray:none;stroke-opacity:1"
       d="m 69.391413,137.10498 c -1.016252,-1.75892 -0.763612,-3.31988 -0.123934,-5.04694"
       id="path48" /><path
       style="fill:#ffffff;fill-opacity:1;stroke:#000000;stroke-width:1.05833;stroke-dasharray:none;stroke-opacity:1"
       d="m 57.277018,136.07329 c -1.692733,-1.63877 -1.232427,-4.14664 -0.03098,-5.66039"
       id="path49" /><path
       style="fill:#ffffff;fill-opacity:1;stroke:#000000;stroke-width:1.05833;stroke-dasharray:none;stroke-opacity:1"
       d="m 109.11175,138.49917 c -2.16256,0.1408 -3.75269,-1.09461 -4.74041,-2.98356 -0.56382,-1.07827 -1.17183,-3.44214 -0.61966,-4.68446 0.21918,-0.49314 0.5863,-0.88285 0.86752,-1.33841 0.34274,-0.55522 1.02724,-1.23225 1.73506,-1.33842 2.66715,-0.40006 4.87066,0.33302 7.49791,0.5019 3.69717,0.23767 7.30853,0.63099 10.87507,1.70091 2.75927,0.82775 5.1339,2.63083 4.33764,5.85558 -0.14667,0.59399 -0.42607,1.48374 -1.05343,1.7009 -1.27106,0.43997 -2.42323,0.94092 -3.77994,1.11535 -1.316,0.16919 -2.84891,-0.0644 -4.18272,-0.13942 -0.67786,-0.0381 -1.40627,0.10823 -2.07587,0.0279 -1.03077,-0.12368 -7.11985,-1.28708 -7.77675,-0.97592 -0.36735,0.17399 -0.72294,0.37178 -1.08442,0.55767 z"
       id="path50" /><path
       style="fill:#ffffff;fill-opacity:1;stroke:#000000;stroke-width:1.05833;stroke-dasharray:none;stroke-opacity:1"
       d="m 108.08931,138.69435 c -1.47735,-1.77679 -1.62592,-4.56834 -0.40278,-6.32959"
       id="path51" /><path
       style="fill:#ffffff;fill-opacity:1;stroke:#000000;stroke-width:1.05833;stroke-dasharray:none;stroke-opacity:1"
       d="m 114.25495,137.21652 c -0.34081,-0.26025 -0.76219,-1.12156 -1.02244,-0.78074 -0.26025,0.34081 1.11852,1.19865 1.02244,0.78074 -0.14911,-0.6486 -0.84532,-1.03159 -1.20834,-1.58937 -0.63637,-0.9778 0.0427,-2.29702 0.74359,-2.92779"
       id="path52" /><path
       style="fill:#ffffff;fill-opacity:1;stroke:#000000;stroke-width:1.05833;stroke-dasharray:none;stroke-opacity:1"
       d="m 97.059328,125.17076 c -0.407133,1.0036 0.30983,2.50757 0.30983,3.23451"
       id="path56" /><path
       style="fill:#ffffff;fill-opacity:1;stroke:#000000;stroke-width:1.05833;stroke-dasharray:none;stroke-opacity:1"
       d="m 102.07859,126.17458 c -0.0168,0.98359 0.19592,2.21183 0.99146,2.92778 0.0723,0.0651 -0.13795,-0.13835 -0.21688,-0.19518"
       id="path57" /><path
       style="fill:#ffffff;fill-opacity:1;stroke:#000000;stroke-width:1.05833;stroke-dasharray:none;stroke-opacity:1"
       d="m 99.723875,133.1455 c -1.475245,-0.7099 -3.295123,-0.39273 -4.740415,-1.11535 -1.518362,-0.75915 -2.152441,-2.71882 -0.06197,-3.09509 0.354195,-0.0637 0.680585,-0.43208 1.053425,-0.47402 1.070952,-0.12048 4.560885,0.2733 5.700895,0.52979 0.31127,0.07 0.69336,0.312 0.99146,0.44614 1.78905,0.80504 0.2551,0.49823 0.46475,2.00762 0.12923,0.93048 0.35247,1.42539 0.15491,2.31435 -0.0225,0.10144 -0.17608,-0.124 -0.27885,-0.13942 -0.28068,-0.0421 -0.61218,-0.0397 -0.89851,-0.0558 -0.80474,-0.0453 -1.59284,-0.25808 -2.385697,-0.41826 z"
       id="path58" /><path
       style="fill:#ffffff;fill-opacity:1;stroke:#000000;stroke-width:1.05833;stroke-dasharray:none;stroke-opacity:1"
       d="m 95.69607,132.08592 c 0.322308,-0.32005 0.463802,-1.98145 0.89851,-1.199"
       id="path59" /><path
       style="fill:#ffffff;fill-opacity:1;stroke:#000000;stroke-width:1.05833;stroke-dasharray:none;stroke-opacity:1"
       d="m 99.445026,132.1138 c 0.0956,-0.7626 0.03398,-1.32027 0.712614,-1.42207"
       id="path60" /></g></svg>
